<svg width="21" height="21" viewBox="0 0 21 21" fill="none" xmlns="http://www.w3.org/2000/svg">
<g clip-path="url(#clip0_1166_88)">
<path d="M4.12619 11.9979C3.33722 12.164 2.52167 12.1806 1.73104 11.3684C1.20284 10.8269 0.938746 10.018 0.970305 9.17089C2.99173 11.5212 5.45498 8.61612 2.4652 7.10628C3.9086 6.42195 5.27061 7.06476 5.99314 8.39521C6.33531 9.02306 6.53961 9.35194 6.80039 9.57617C6.84763 9.61763 6.89757 9.65592 6.94987 9.69078C7.06045 9.37374 7.28559 9.1095 7.58105 8.94998C7.74792 8.86354 7.93295 8.818 8.12087 8.8171C8.64907 8.8171 9.30682 9.13269 9.41811 9.67085C9.44189 9.66417 9.46649 9.66082 9.49119 9.66089H9.87488C9.89529 9.65835 9.91593 9.65835 9.93634 9.66089C10.1391 9.67952 10.3302 9.7642 10.4802 9.90193C10.6303 10.0397 10.731 10.2228 10.7668 10.4233C10.8037 10.4058 10.844 10.3967 10.8848 10.3967H11.2685C11.2889 10.3942 11.3095 10.3942 11.3299 10.3967C11.8797 10.4814 12.1023 10.8203 12.1803 11.2471H12.2235H12.6072C12.6276 11.2446 12.6483 11.2446 12.6687 11.2471C13.2998 11.3451 13.5473 11.7587 13.6437 12.257C14.8064 12.0793 16.0637 11.3817 17.2979 12.644C17.5665 12.9399 17.7723 13.2872 17.9027 13.6649C18.0332 14.0427 18.0857 14.4429 18.0569 14.8415C16.0355 12.4912 13.5722 15.3963 16.562 16.9061C15.3213 17.4941 14.1386 17.1005 13.3729 16.1321C13.2684 16.4157 13.1383 16.6892 12.9843 16.9493C12.9211 17.0523 12.8564 17.1586 12.7733 17.3048C12.7725 17.3086 12.7725 17.3126 12.7733 17.3164C12.7081 17.4314 12.636 17.5423 12.5574 17.6486H12.8231C12.9331 17.649 13.0385 17.6929 13.1163 17.7707C13.1941 17.8485 13.238 17.9538 13.2384 18.0638V20.3245C13.238 20.4344 13.1941 20.5398 13.1163 20.6176C13.0385 20.6954 12.9331 20.7393 12.8231 20.7397H6.80537C6.69537 20.7393 6.59001 20.6954 6.51223 20.6176C6.43445 20.5398 6.39056 20.4344 6.39012 20.3245V18.0805C6.39056 17.9705 6.43445 17.8651 6.51223 17.7873C6.59001 17.7095 6.69537 17.6656 6.80537 17.6652H6.94987C6.87742 17.4614 6.8273 17.2503 6.80039 17.0357L4.73079 13.6456L4.72082 13.634C4.55705 13.4151 4.4178 13.179 4.30558 12.9297C4.20885 12.7199 4.14821 12.4953 4.12619 12.2653C4.1195 12.1785 4.1195 12.0913 4.12619 12.0045V11.9979ZM19.4073 6.46846C19.3956 6.42365 19.3747 6.38179 19.3459 6.34555C19.321 6.31269 19.2885 6.28645 19.2512 6.26914C19.2158 6.24817 19.176 6.23567 19.1349 6.2326C19.0923 6.23138 19.0498 6.23641 19.0087 6.24755H18.9987L17.7762 6.61961C17.6616 6.65689 17.5373 6.65134 17.4264 6.60401C17.3156 6.55667 17.2256 6.47074 17.1733 6.36216C17.1102 6.25585 17.0487 6.15121 16.974 6.02996C16.8992 5.90871 16.8079 5.80074 16.7431 5.69776C16.6783 5.59478 16.5836 5.49512 16.484 5.39214C16.3843 5.28916 16.3179 5.20278 16.2033 5.08818C16.1301 5.01054 16.0829 4.91203 16.0684 4.80635C16.0538 4.70068 16.0725 4.59308 16.1219 4.49852L16.7713 3.27769C16.7936 3.24177 16.8072 3.20112 16.8109 3.15901C16.8147 3.1169 16.8085 3.07449 16.7929 3.03519C16.7822 2.99647 16.7648 2.95993 16.7414 2.92723C16.7139 2.89307 16.6794 2.8653 16.6401 2.84584L15.102 2.02697C15.0664 2.00774 15.0284 1.99322 14.9891 1.98378C14.943 1.98289 14.8971 1.98905 14.8529 2.00205C14.8148 2.01089 14.7798 2.02982 14.7516 2.05687C14.7174 2.08434 14.6896 2.11891 14.6702 2.15819L14.0722 3.27936C14.0154 3.38619 13.9231 3.46985 13.8112 3.51594C13.6993 3.56203 13.5749 3.56764 13.4593 3.53183C13.3231 3.49695 13.1952 3.46373 13.0823 3.44047C12.9693 3.41722 12.8265 3.39396 12.6903 3.37569C12.558 3.35832 12.425 3.34778 12.2916 3.34413C12.1521 3.33417 12.0225 3.34413 11.898 3.33417C11.7863 3.3384 11.6765 3.305 11.5862 3.23934C11.4958 3.17367 11.4301 3.07955 11.3997 2.97207L10.9844 1.62667C10.9844 1.6167 10.9844 1.6167 10.9844 1.61006C10.9732 1.57131 10.9564 1.53438 10.9346 1.50043C10.8786 1.44361 10.8046 1.40782 10.7253 1.39911C10.6791 1.39534 10.6327 1.40157 10.5891 1.41738L8.94307 1.92066C8.89822 1.93138 8.85626 1.95179 8.82015 1.98046C8.78754 2.00595 8.7609 2.03827 8.74208 2.07514C8.72079 2.11092 8.70879 2.15146 8.7072 2.19307C8.70526 2.23513 8.71031 2.27723 8.72215 2.31764V2.32595L9.09588 3.54678C9.13066 3.66193 9.12376 3.78567 9.07637 3.89624C9.02898 4.00681 8.94414 4.09715 8.83676 4.15138C8.73046 4.21283 8.62582 4.27429 8.50456 4.3507C8.38331 4.4271 8.27535 4.50849 8.17236 4.58157C8.06938 4.65466 7.95644 4.74767 7.85512 4.83737C7.75379 4.92706 7.6641 5.00347 7.55115 5.11973C7.47267 5.19386 7.37286 5.24143 7.26586 5.25574C7.15886 5.27005 7.05006 5.25036 6.95486 5.19946L5.73569 4.55001C5.69731 4.52866 5.65486 4.51564 5.61112 4.51181C5.57261 4.51165 5.5342 4.51555 5.49651 4.52344C5.4586 4.5318 5.42361 4.55015 5.39519 4.57659C5.36056 4.60426 5.33272 4.63949 5.3138 4.67957L5.24736 4.80249C4.87925 4.73128 4.50302 4.71172 4.12951 4.74435L4.42517 4.18792C4.50914 4.03055 4.62181 3.89027 4.75737 3.77433C4.89588 3.66265 5.05423 3.57812 5.2241 3.52518C5.39476 3.47191 5.57434 3.45328 5.7523 3.47037C5.92726 3.49435 6.09624 3.55067 6.2506 3.63647L7.15252 4.11816L7.21896 4.06334C7.33522 3.96202 7.4598 3.86569 7.58437 3.76769C7.70895 3.66969 7.84349 3.57169 7.9664 3.49196L8.00959 3.4604L7.76044 2.6216C7.70435 2.45211 7.68565 2.27248 7.70563 2.09507C7.72113 1.91695 7.77315 1.74394 7.85844 1.58681C7.93983 1.42917 8.05293 1.29006 8.19064 1.1782C8.32907 1.06547 8.48818 0.980836 8.65904 0.929053L10.3184 0.414146C10.487 0.359077 10.6645 0.335981 10.8416 0.346045C11.0198 0.360931 11.193 0.412986 11.3498 0.498856C11.5097 0.586181 11.6513 0.703479 11.7668 0.844342C11.8767 0.98128 11.9555 1.14056 11.9976 1.31108L12.3016 2.28774C12.3253 2.29016 12.3493 2.29016 12.373 2.28774C12.5225 2.29605 12.677 2.31432 12.8398 2.32927C13.0025 2.34422 13.1504 2.37578 13.3065 2.40567C13.329 2.40676 13.351 2.41241 13.3713 2.42228L13.7799 1.65325C13.8619 1.49589 13.9752 1.35697 14.1129 1.245C14.2506 1.13304 14.4097 1.05039 14.5805 1.00214H14.5904C14.7573 0.949887 14.9331 0.932363 15.107 0.950646C15.2809 0.96843 15.4499 1.01857 15.6053 1.09847L17.1417 1.919C17.2992 2.00288 17.4394 2.11556 17.5553 2.2512C17.6703 2.38815 17.7551 2.54773 17.8045 2.7196C17.8579 2.88966 17.8765 3.06872 17.8593 3.24614C17.8363 3.42134 17.7799 3.5905 17.6932 3.74443L17.2115 4.64801C17.2298 4.66628 17.2497 4.69452 17.268 4.71279C17.3676 4.83072 17.4656 4.95364 17.562 5.07821C17.6583 5.20278 17.7596 5.33732 17.8377 5.46024L17.8692 5.50508L18.708 5.25427C18.8776 5.19869 19.0573 5.18056 19.2346 5.20112C19.4124 5.21685 19.5853 5.26825 19.7428 5.35227C19.9007 5.43334 20.0399 5.54649 20.1514 5.68447V5.69776C20.2642 5.8362 20.3488 5.9953 20.4006 6.16616L20.8989 7.8122H20.9072C20.9577 7.98059 20.9774 8.15671 20.9653 8.33209C20.9497 8.51018 20.8977 8.68317 20.8125 8.84036C20.7283 8.9961 20.6156 9.13469 20.4803 9.24896C20.3424 9.35979 20.182 9.43915 20.0103 9.4815L19.0336 9.78546C19.0336 9.81037 19.0336 9.83861 19.0336 9.86353C19.0336 10.0147 19.0087 10.1675 18.9937 10.3137C18.9937 10.3137 18.9937 10.3319 18.9937 10.3386C18.974 10.4972 18.9457 10.6547 18.909 10.8103L18.8974 10.8668L19.6731 11.2804C19.8319 11.3606 19.9718 11.4739 20.0833 11.6126C20.1935 11.7496 20.2753 11.9071 20.3242 12.076V12.0876C20.3764 12.2539 20.394 12.4292 20.3757 12.6025C20.3581 12.7766 20.3074 12.9458 20.2262 13.1008L20.1033 13.3317L19.884 13.2137C19.7202 12.7461 19.4763 12.3105 19.1631 11.9265C19.1399 11.8949 19.115 11.865 19.0884 11.8351C18.737 11.4157 18.3121 11.0639 17.8344 10.797C17.8493 10.7355 17.8643 10.6724 17.8775 10.6093C17.8991 10.4847 17.924 10.3535 17.939 10.2074C17.939 10.2074 17.939 10.1891 17.939 10.1824C17.9573 10.0479 17.9672 9.92664 17.9772 9.80539C17.9872 9.68414 17.9921 9.54129 17.9888 9.41174C17.9846 9.30011 18.018 9.1903 18.0837 9.09994C18.1493 9.00957 18.2434 8.94389 18.3509 8.91344L19.6947 8.49819C19.6947 8.49819 19.7063 8.49819 19.7129 8.49819C19.7513 8.48729 19.7877 8.47048 19.8209 8.44836C19.8503 8.4235 19.8736 8.39225 19.889 8.35701C19.9088 8.3206 19.9207 8.28041 19.9239 8.23908C19.9277 8.19289 19.9214 8.14643 19.9056 8.10288L19.4073 6.45849V6.46846ZM13.7599 5.95521C13.9928 6.07724 14.2117 6.22427 14.4127 6.39371C14.6137 6.55903 14.7974 6.74435 14.9608 6.94683C15.115 7.14583 15.2538 7.35627 15.3761 7.57634C15.4951 7.79435 15.5909 8.02428 15.6618 8.26233C15.7371 8.50198 15.785 8.74938 15.8046 8.99981C15.832 9.25043 15.832 9.50328 15.8046 9.7539C15.8046 9.77217 15.8046 9.78546 15.8046 9.79709C15.7845 10.0086 15.7467 10.2181 15.6917 10.4233C15.4193 10.4499 15.1485 10.493 14.8811 10.5412L14.6353 10.41C14.6569 10.3535 14.6751 10.2954 14.6934 10.2356C14.7438 10.0651 14.7793 9.89062 14.7997 9.71404C14.798 9.70192 14.798 9.68962 14.7997 9.67749C14.8189 9.48752 14.8189 9.29609 14.7997 9.10611C14.7823 8.92445 14.7478 8.74483 14.6967 8.56961C14.6443 8.39623 14.573 8.22913 14.4841 8.07132C14.3936 7.90281 14.2874 7.7432 14.1669 7.59461C14.0457 7.44525 13.9093 7.30888 13.7599 7.18767C13.4553 6.94022 13.1056 6.75408 12.7301 6.63954C12.5597 6.58919 12.3852 6.55363 12.2086 6.53324C12.1965 6.53561 12.1841 6.53561 12.172 6.53324C11.982 6.51574 11.7907 6.51574 11.6007 6.53324C11.4189 6.55126 11.2393 6.58629 11.0642 6.63788C10.8908 6.69029 10.7237 6.76159 10.5659 6.85049C10.3974 6.94044 10.2378 7.04611 10.0891 7.16608C9.94167 7.2864 9.80646 7.42105 9.68553 7.56804C9.64733 7.61288 9.60912 7.66105 9.57258 7.71254L8.66568 7.22919C8.73811 7.11951 8.81687 7.01414 8.90154 6.91361C9.06243 6.71407 9.24332 6.53152 9.44136 6.3688C9.63993 6.21352 9.85042 6.07412 10.0709 5.95189C10.2945 5.83359 10.5286 5.73628 10.7702 5.66122C11.0076 5.58782 11.2519 5.53885 11.4993 5.51505C11.7505 5.48848 12.0039 5.48848 12.2551 5.51505C12.2717 5.51505 12.2866 5.52336 12.2966 5.51505C12.5413 5.53846 12.7833 5.58518 13.0191 5.65457C13.2706 5.73164 13.5147 5.83114 13.7483 5.95189L13.7599 5.95521ZM7.46644 9.94159V9.9582V9.9798V10.0147V10.0329V10.0512V10.1077V10.1459V10.1658V10.204V10.2256V10.2472V10.312V10.3336V10.3568V10.3984V13.4679C7.46941 13.5062 7.46442 13.5448 7.45178 13.5811C7.43914 13.6174 7.41913 13.6507 7.39301 13.6789C7.36688 13.7072 7.33521 13.7297 7.29997 13.7451C7.26473 13.7605 7.22669 13.7684 7.18823 13.7684C7.14977 13.7684 7.11173 13.7605 7.07649 13.7451C7.04125 13.7297 7.00957 13.7072 6.98345 13.6789C6.95732 13.6507 6.93731 13.6174 6.92468 13.5811C6.91204 13.5448 6.90705 13.5062 6.91001 13.4679V12.953C6.89542 12.9447 6.88153 12.9353 6.86849 12.9247L6.25226 12.4979L5.53139 11.9049C5.45778 11.8428 5.37622 11.7909 5.28888 11.7504H5.10119C5.02162 11.7305 4.938 11.734 4.86035 11.7604C4.83062 11.7729 4.80371 11.7913 4.78118 11.8144C4.75864 11.8375 4.74095 11.8649 4.72913 11.8949H4.71252C4.67858 12.0084 4.66729 12.1275 4.6793 12.2454C4.69637 12.4124 4.74187 12.5754 4.81384 12.7271C4.91 12.9309 5.02807 13.1236 5.16597 13.3018C5.16597 13.3018 5.1776 13.3184 5.18258 13.3284L7.29204 16.7766C7.3176 16.8142 7.33357 16.8576 7.33855 16.9028C7.35651 17.1694 7.43067 17.4293 7.55614 17.6652H11.7668C11.9792 17.504 12.1539 17.2982 12.2783 17.0623C12.2811 17.0569 12.2844 17.0519 12.2883 17.0473C12.3481 16.9443 12.4278 16.8131 12.5059 16.6852C12.7109 16.3289 12.8705 15.9484 12.9809 15.5524V15.5425V15.5258V15.5159V15.4993V15.4876V15.471L12.9909 15.4378V15.4212V15.4063V15.3896V15.378V15.3614V15.3448V15.3282V15.295V15.2784V15.2634V15.2468V15.2302V15.2169V15.2003V15.1887V15.1721V15.1554V15.1388V15.1272V15.1106V15.0973V15.0824V15.0658V15.0508V15.0342V15.0176V15.0026V14.9545V14.9379V14.9212V14.9063V14.8897V14.8747V14.8581V14.7186V14.5525L12.9693 13.6057C12.9685 13.5925 12.9685 13.5792 12.9693 13.5659C12.9693 13.5526 12.9693 13.4629 12.9693 13.3433V13.3134V13.1091V13.0775V12.8633V12.8317V12.654V12.6258V12.5959V12.5643V12.5493V12.443V12.4298V12.4148V12.3999V12.3849V12.3733V12.3583V12.345V12.3301V12.3052C12.9492 12.1833 12.8926 12.0703 12.8068 11.9813C12.7211 11.8923 12.6104 11.8315 12.4893 11.8069H12.2219C12.2219 11.885 12.2219 11.9614 12.2219 12.0394V12.056V12.0693V12.1391V12.1557V12.1673V12.1756V12.1839V12.1922C12.2119 12.3467 12.2036 12.4979 12.2036 12.6407C12.2036 12.7147 12.1742 12.7857 12.1219 12.838C12.0695 12.8904 11.9986 12.9198 11.9245 12.9198C11.8505 12.9198 11.7796 12.8904 11.7272 12.838C11.6749 12.7857 11.6455 12.7147 11.6455 12.6407C11.6455 12.4979 11.6571 12.3318 11.6671 12.159V12.1042V12.076V12.0511V11.9962V11.968V11.9431V11.9149V12.0062V11.9497V11.8949V11.8401V11.8069C11.6671 11.3883 11.5923 11.0246 11.2552 10.9631H10.8864C10.8666 10.9657 10.8465 10.9657 10.8266 10.9631C10.8266 11.1192 10.8266 11.282 10.8133 11.4398V11.6059C10.8034 11.7604 10.7951 11.9099 10.7951 12.0527C10.7951 12.1267 10.7657 12.1977 10.7133 12.25C10.661 12.3024 10.59 12.3318 10.516 12.3318C10.442 12.3318 10.371 12.3024 10.3187 12.25C10.2664 12.1977 10.237 12.1267 10.237 12.0527C10.237 11.9099 10.2486 11.7438 10.2586 11.571V11.5428V11.5179V11.4913V11.4631V11.4348V11.4066V11.3534V11.3269V11.2986V11.2754V11.2471V11.2189V11.2073C10.2719 10.7355 10.2204 10.3004 9.84831 10.2323H9.48953C9.46536 10.2324 9.4413 10.2291 9.41811 10.2223V11.3003C9.41811 11.3743 9.38871 11.4453 9.33638 11.4976C9.28405 11.5499 9.21307 11.5793 9.13906 11.5793C9.06505 11.5793 8.99408 11.5499 8.94175 11.4976C8.88942 11.4453 8.86002 11.3743 8.86002 11.3003V9.93827C8.86002 9.55292 8.47799 9.38682 8.12087 9.38682C8.02039 9.38705 7.92138 9.41095 7.83186 9.45658C7.64673 9.56759 7.51209 9.74631 7.45648 9.95488L7.46644 9.94159ZM6.83194 11.973L6.56951 11.865C6.45023 11.8164 6.32822 11.7748 6.20409 11.7404L6.60439 12.0726L6.83194 12.2587V11.973Z" fill="white"/>
</g>
<defs>
<clipPath id="clip0_1166_88">
<rect width="20" height="20.4103" fill="white" transform="translate(0.969727 0.34375)"/>
</clipPath>
</defs>
</svg>
