<svg width="21" height="22" viewBox="0 0 21 22" fill="none" xmlns="http://www.w3.org/2000/svg">
<g clip-path="url(#clip0_1166_82)">
<path fill-rule="evenodd" clip-rule="evenodd" d="M10.9355 0C14.6647 2.36395 18.0338 3.48197 20.9248 3.21803C21.43 13.4313 17.6583 19.4627 10.9737 21.9803C4.51922 19.624 0.701199 13.8519 0.98446 3.06266C4.37845 3.24034 7.70849 2.50687 10.9355 0ZM12.9205 9.4515V8.72876C12.9205 8.15966 12.6991 7.64378 12.342 7.27167C11.9892 6.90386 11.5033 6.67511 10.9694 6.67511C10.436 6.67511 9.95013 6.90386 9.59734 7.27167C9.24025 7.64378 9.01879 8.15966 9.01879 8.72876V9.4515H12.9205ZM8.14669 9.4515V8.72876C8.14669 7.92833 8.46214 7.19914 8.9703 6.6691C9.48317 6.13476 10.1905 5.803 10.9699 5.803C11.7493 5.803 12.457 6.13433 12.969 6.6691C13.4776 7.19914 13.793 7.92833 13.793 8.72876V9.4515H14.1051C14.3583 9.4515 14.5656 9.6588 14.5656 9.91202V14.7798C14.5656 15.0335 14.3583 15.2408 14.1051 15.2408H7.83467C7.58103 15.2408 7.37416 15.0335 7.37416 14.7798V9.91202C7.37373 9.6588 7.58103 9.4515 7.83467 9.4515H8.14669ZM10.5918 12.5605L10.0943 13.8622H11.845L11.3845 12.5425C11.6767 12.3923 11.8763 12.0876 11.8763 11.7365C11.8763 11.2352 11.4707 10.8296 10.9694 10.8296C10.469 10.8296 10.063 11.2352 10.063 11.7365C10.063 12.1017 10.2797 12.4167 10.5918 12.5605ZM10.942 1.70129C14.0347 3.66137 17.0029 4.76352 19.4008 4.54421C19.8197 13.0142 16.5171 18.191 10.9746 20.2785C5.62094 18.3249 2.28017 13.3635 2.51493 4.41588C5.62137 4.57854 8.46815 3.62318 10.942 1.70129Z" fill="white"/>
</g>
<defs>
<clipPath id="clip0_1166_82">
<rect width="20" height="21.9803" fill="white" transform="translate(0.969727)"/>
</clipPath>
</defs>
</svg>
