<svg width="21" height="23" viewBox="0 0 21 23" fill="none" xmlns="http://www.w3.org/2000/svg">
<g clip-path="url(#clip0_1166_106)">
<path d="M18.1979 5.48032V16.7096C18.1998 16.7307 18.1998 16.7519 18.1979 16.773C18.1979 16.8942 18.1979 17.0118 18.1867 17.1237V17.9332C18.1637 18.4711 17.9378 18.9804 17.5543 19.3583C17.3749 19.5431 17.1604 19.6901 16.9233 19.7907C16.6863 19.8913 16.4315 19.9434 16.174 19.944H16.0788C15.5642 19.9838 15.0472 19.9838 14.5325 19.944H5.25997V20.9028C5.25849 21.0233 5.28094 21.1429 5.32602 21.2546C5.37111 21.3663 5.43792 21.468 5.5226 21.5537C5.60727 21.6394 5.70812 21.7075 5.8193 21.7539C5.93047 21.8004 6.04976 21.8243 6.17025 21.8243H18.9589C19.2 21.8233 19.431 21.7271 19.6015 21.5566C19.772 21.3861 19.8682 21.1551 19.8692 20.914V6.3906C19.8672 6.14978 19.7707 5.91938 19.6004 5.74909C19.4301 5.5788 19.1997 5.48227 18.9589 5.48032H18.1979ZM9.88224 14.4115L12.6709 14.4581C12.6701 14.9353 12.5502 15.4047 12.3222 15.8239C12.0943 16.2431 11.7653 16.5988 11.3652 16.8588L9.88224 14.4115ZM9.73675 13.5833L9.69571 10.4458V10.2294L9.91022 10.2462C10.1705 10.2635 10.4285 10.3059 10.6806 10.3731C10.9242 10.439 11.1605 10.5297 11.3857 10.6435C11.9529 10.9279 12.435 11.3569 12.7834 11.8871C13.1319 12.4173 13.3344 13.03 13.3704 13.6635L13.3872 13.8705H13.1745L9.94193 13.7754H9.7554L9.72369 13.5889L9.73675 13.5833ZM10.0912 10.6323L10.1229 13.3986L12.96 13.4788C12.8964 12.948 12.703 12.4411 12.3968 12.0029C12.0907 11.5646 11.6813 11.2086 11.2048 10.9662C11.0039 10.8699 10.7955 10.79 10.5817 10.7275C10.3952 10.6958 10.2534 10.6641 10.0912 10.6323ZM8.94772 14.1298L10.5388 16.801C10.052 17.0714 9.50459 17.2139 8.94772 17.2151C8.53954 17.2288 8.13269 17.1614 7.75077 17.0167C7.36885 16.872 7.01946 16.6529 6.72286 16.3722C6.42626 16.0914 6.18835 15.7546 6.02294 15.3811C5.85753 15.0077 5.7679 14.6052 5.75926 14.1969C5.75062 13.7886 5.82313 13.3826 5.97259 13.0025C6.12205 12.6224 6.34549 12.2758 6.62994 11.9827C6.9144 11.6897 7.25421 11.456 7.62966 11.2953C8.00512 11.1346 8.40875 11.05 8.81714 11.0464L8.94772 14.1298ZM9.07829 4.1261H9.9867C9.99745 4.12526 10.0083 4.12675 10.0184 4.13049C10.0285 4.13422 10.0377 4.1401 10.0453 4.14772C10.0529 4.15535 10.0588 4.16453 10.0625 4.17464C10.0663 4.18476 10.0678 4.19556 10.0669 4.20631V6.62004C10.0678 6.63078 10.0663 6.64158 10.0625 6.6517C10.0588 6.66181 10.0529 6.67099 10.0453 6.67862C10.0377 6.68624 10.0285 6.69212 10.0184 6.69585C10.0083 6.69959 9.99745 6.70108 9.9867 6.70024H9.07829C9.06754 6.70108 9.05674 6.69959 9.04663 6.69585C9.03651 6.69212 9.02733 6.68624 9.01971 6.67862C9.01208 6.67099 9.0062 6.66181 9.00247 6.6517C8.99874 6.64158 8.99724 6.63078 8.99808 6.62004V4.20631C8.9994 4.18547 9.00827 4.16582 9.02304 4.15106C9.0378 4.13629 9.05745 4.12742 9.07829 4.1261ZM13.8722 4.1261H14.7731C14.7839 4.12526 14.7947 4.12675 14.8048 4.13049C14.8149 4.13422 14.8241 4.1401 14.8317 4.14772C14.8393 4.15535 14.8452 4.16453 14.8489 4.17464C14.8527 4.18476 14.8542 4.19556 14.8533 4.20631V6.62004C14.8542 6.63078 14.8527 6.64158 14.8489 6.6517C14.8452 6.66181 14.8393 6.67099 14.8317 6.67862C14.8241 6.68624 14.8149 6.69212 14.8048 6.69585C14.7947 6.69959 14.7839 6.70108 14.7731 6.70024H13.8722C13.8614 6.70108 13.8506 6.69959 13.8405 6.69585C13.8304 6.69212 13.8212 6.68624 13.8136 6.67862C13.806 6.67099 13.8001 6.66181 13.7964 6.6517C13.7926 6.64158 13.7911 6.63078 13.792 6.62004V4.20631C13.7933 4.18547 13.8022 4.16582 13.8169 4.15106C13.8317 4.13629 13.8513 4.12742 13.8722 4.1261ZM11.4752 2.40813H12.3836C12.3944 2.40729 12.4052 2.40879 12.4153 2.41252C12.4254 2.41626 12.4346 2.42214 12.4422 2.42976C12.4498 2.43738 12.4557 2.44657 12.4595 2.45668C12.4632 2.46679 12.4647 2.4776 12.4639 2.48834V6.62004C12.4647 6.63078 12.4632 6.64158 12.4595 6.6517C12.4557 6.66181 12.4498 6.67099 12.4422 6.67862C12.4346 6.68624 12.4254 6.69212 12.4153 6.69585C12.4052 6.69959 12.3944 6.70108 12.3836 6.70024H11.4752C11.4645 6.70108 11.4537 6.69959 11.4436 6.69585C11.4335 6.69212 11.4243 6.68624 11.4166 6.67862C11.409 6.67099 11.4031 6.66181 11.3994 6.6517C11.3957 6.64158 11.3942 6.63078 11.395 6.62004V2.48834C11.3942 2.4776 11.3957 2.46679 11.3994 2.45668C11.4031 2.44657 11.409 2.43738 11.4166 2.42976C11.4243 2.42214 11.4335 2.41626 11.4436 2.41252C11.4537 2.40879 11.4645 2.40729 11.4752 2.40813ZM4.28627 3.02369H5.19468C5.20553 3.02313 5.21636 3.02489 5.22647 3.02884C5.23658 3.03279 5.24574 3.03885 5.25332 3.04661C5.26091 3.05438 5.26676 3.06367 5.27048 3.07387C5.2742 3.08407 5.2757 3.09494 5.27489 3.10576V6.62004C5.27573 6.63078 5.27424 6.64158 5.2705 6.6517C5.26677 6.66181 5.26089 6.67099 5.25327 6.67862C5.24564 6.68624 5.23646 6.69212 5.22635 6.69585C5.21623 6.69959 5.20543 6.70108 5.19468 6.70024H4.28627C4.27552 6.70108 4.26472 6.69959 4.25461 6.69585C4.2445 6.69212 4.23531 6.68624 4.22769 6.67862C4.22007 6.67099 4.21419 6.66181 4.21045 6.6517C4.20672 6.64158 4.20522 6.63078 4.20606 6.62004V3.10576C4.18928 3.0554 4.23777 3.02369 4.28627 3.02369ZM6.68135 2.40813H7.58976C7.60051 2.40729 7.61131 2.40879 7.62142 2.41252C7.63154 2.41626 7.64072 2.42214 7.64834 2.42976C7.65597 2.43738 7.66185 2.44657 7.66558 2.45668C7.66931 2.46679 7.67081 2.4776 7.66997 2.48834V6.62004C7.67081 6.63078 7.66931 6.64158 7.66558 6.6517C7.66185 6.66181 7.65597 6.67099 7.64834 6.67862C7.64072 6.68624 7.63154 6.69212 7.62142 6.69585C7.61131 6.69959 7.60051 6.70108 7.58976 6.70024H6.68135C6.6706 6.70108 6.6598 6.69959 6.64968 6.69585C6.63957 6.69212 6.63039 6.68624 6.62276 6.67862C6.61514 6.67099 6.60926 6.66181 6.60553 6.6517C6.60179 6.64158 6.6003 6.63078 6.60114 6.62004V2.48834C6.6003 2.4776 6.60179 2.46679 6.60553 2.45668C6.60926 2.44657 6.61514 2.43738 6.62276 2.42976C6.63039 2.42214 6.63957 2.41626 6.64968 2.41252C6.6598 2.40879 6.6706 2.40729 6.68135 2.40813ZM2.98241 8.26451e-07H16.1702C16.4345 -0.000239402 16.6962 0.051894 16.9401 0.153388C17.1841 0.254881 17.4055 0.403723 17.5916 0.591308L17.6233 0.62675C17.9822 0.998919 18.1828 1.4957 18.1829 2.01269V4.37792H18.9589C19.4921 4.37939 20.003 4.59198 20.3798 4.96916C20.7566 5.34635 20.9687 5.85743 20.9697 6.3906V20.9084C20.9687 21.4416 20.7566 21.9527 20.3798 22.3299C20.003 22.707 19.4921 22.9196 18.9589 22.9211H6.17025C5.63691 22.9196 5.12583 22.7071 4.7487 22.33C4.37157 21.9528 4.15904 21.4418 4.15756 20.9084V19.944H2.98241C2.71823 19.9439 2.45669 19.8916 2.21278 19.7901C1.96886 19.6886 1.74738 19.54 1.56103 19.3527C1.37384 19.1667 1.22523 18.9456 1.12376 18.702C1.02228 18.4584 0.969937 18.1971 0.969727 17.9332L0.969727 2.01269C0.971203 1.47934 1.18373 0.968266 1.56086 0.591134C1.93799 0.214002 2.44907 0.00147756 2.98241 8.26451e-07ZM16.1702 1.10241H2.98241C2.74099 1.10241 2.50946 1.19831 2.33875 1.36902C2.16804 1.53973 2.07213 1.77126 2.07213 2.01269V7.63291H17.0805V2.01269C17.0809 1.78213 16.9935 1.56007 16.8362 1.39153L16.8138 1.36915C16.6429 1.19877 16.4116 1.10288 16.1702 1.10241ZM2.07213 8.73531V17.9332C2.07221 18.0525 2.09581 18.1705 2.14158 18.2806C2.18735 18.3907 2.2544 18.4907 2.33887 18.5749C2.42347 18.6592 2.52385 18.726 2.63427 18.7714C2.7447 18.8169 2.863 18.8401 2.98241 18.8398H16.1012C16.327 18.8248 16.5433 18.743 16.7224 18.6047C16.9574 18.3921 17.0432 17.9426 17.0805 17.2002V8.73531H2.07213Z" fill="white"/>
</g>
<defs>
<clipPath id="clip0_1166_106">
<rect width="20" height="22.9211" fill="white" transform="translate(0.969727)"/>
</clipPath>
</defs>
</svg>
