<svg width="21" height="17" viewBox="0 0 21 17" fill="none" xmlns="http://www.w3.org/2000/svg">
<g clip-path="url(#clip0_1166_98)">
<path d="M4.4149 0.507812H17.5247C18.4726 0.507812 19.3338 0.895348 19.9582 1.51954C20.5822 2.14389 20.9697 3.00539 20.9697 3.95299V13.3767C20.9697 14.324 20.5822 15.1855 19.9578 15.8099C19.3338 16.4342 18.4723 16.8217 17.5247 16.8217H4.4149C3.46731 16.8217 2.60597 16.4342 1.98145 15.8099C1.35726 15.186 0.969727 14.3245 0.969727 13.3764V3.95299C0.969727 3.00523 1.3571 2.14373 1.98129 1.51954C2.60564 0.895185 3.46698 0.507812 4.4149 0.507812ZM10.5326 3.66702C10.5326 3.55227 10.5907 3.45234 10.6855 3.3843C10.761 3.32994 10.8614 3.29625 10.9698 3.29625C11.0769 3.29625 11.178 3.3301 11.2537 3.38463C11.3481 3.45266 11.4068 3.55211 11.4068 3.66702V6.73622C11.4068 6.8508 11.349 6.95057 11.2542 7.01893C11.1785 7.0733 11.078 7.10715 10.9696 7.10715C10.8625 7.10715 10.7615 7.0733 10.6856 7.01861C10.5914 6.95057 10.5325 6.85113 10.5325 6.73638V3.66702H10.5326ZM12.3617 5.33679C12.2584 5.29252 12.1796 5.21277 12.1353 5.11755C12.089 5.01664 12.081 4.89766 12.1233 4.7847C12.1656 4.67191 12.2488 4.58613 12.35 4.53958C12.4505 4.4932 12.5691 4.48506 12.6819 4.52689C13.4534 4.80961 14.047 5.27673 14.451 5.87862C14.8649 6.49452 15.0776 7.24761 15.0776 8.08453C15.0776 8.63923 14.9666 9.16967 14.7657 9.6547C14.5569 10.1589 14.2521 10.6119 13.8743 10.9892C13.496 11.3674 13.0436 11.6723 12.5401 11.881C12.0553 12.0818 11.5248 12.1925 10.9698 12.1925C10.4153 12.1925 9.88468 12.0811 9.39981 11.8806C8.89557 11.6718 8.44261 11.3666 8.06516 10.9892C7.68674 10.6106 7.38189 10.1583 7.17339 9.65502C6.97271 9.16999 6.86203 8.63955 6.86203 8.08453C6.86203 7.24745 7.07476 6.49435 7.4885 5.87846C7.89263 5.27657 8.48623 4.80961 9.25772 4.5264L9.27334 4.52135C9.38158 4.48555 9.49372 4.49499 9.58991 4.53942C9.69083 4.58597 9.77432 4.67175 9.81664 4.78454L9.81746 4.78682C9.85912 4.89978 9.85082 5.01827 9.80411 5.11869L9.79662 5.13318C9.74861 5.22693 9.66592 5.30391 9.55915 5.34395L9.55818 5.34428C8.96068 5.56368 8.50901 5.91606 8.20579 6.36984C7.89198 6.83941 7.73378 7.42275 7.73378 8.08421C7.73378 8.52301 7.82086 8.94066 7.97841 9.3212C8.14231 9.71671 8.38304 10.0733 8.68187 10.3722C8.9807 10.671 9.33747 10.9119 9.73298 11.0756C10.1134 11.2333 10.5312 11.3204 10.97 11.3204C11.4086 11.3204 11.8266 11.2333 12.2068 11.0756C12.6026 10.9115 12.9589 10.671 13.2578 10.3722C13.5566 10.0733 13.7975 9.71671 13.9612 9.3212C14.1192 8.94066 14.206 8.52301 14.206 8.08421C14.206 7.42161 14.0483 6.83843 13.7348 6.36935C13.4319 5.9159 12.9801 5.56401 12.3816 5.34477L12.3617 5.33679ZM1.71159 12.102C1.83855 12.5779 2.08855 13.0045 2.42465 13.345L2.43979 13.359C2.94679 13.866 3.64667 14.1811 4.41539 14.1811H17.5245L17.5522 14.1808L17.8481 14.1624C18.4818 14.0883 19.0529 13.8009 19.486 13.3743L19.4997 13.3593C19.8439 13.0151 20.0996 12.5821 20.2283 12.0989V3.95299C20.2283 3.21015 19.9241 2.53436 19.4339 2.04396C18.9437 1.55388 18.2679 1.24952 17.5249 1.24952H4.41474C3.67173 1.24952 2.99595 1.55372 2.50571 2.0438C2.01563 2.53387 1.71143 3.20966 1.71143 3.95283V12.1021L1.71159 12.102Z" fill="white"/>
</g>
<defs>
<clipPath id="clip0_1166_98">
<rect width="20" height="16.3139" fill="white" transform="translate(0.969727 0.507812)"/>
</clipPath>
</defs>
</svg>
