<svg width="21" height="20" viewBox="0 0 21 20" fill="none" xmlns="http://www.w3.org/2000/svg">
<g clip-path="url(#clip0_1166_84)">
<path fill-rule="evenodd" clip-rule="evenodd" d="M15.1684 8.12656L18.1395 2.98047L12.8872 0L7.7106 8.96602C8.08247 8.81524 8.47427 8.71524 8.87427 8.67422L12.6657 2.10703C13.1563 2.38633 13.7024 2.23477 13.9458 1.80664L16.0133 3.00039C15.7778 3.41484 15.9293 3.96133 16.3559 4.20313L14.3372 7.69961C14.6266 7.81641 14.9028 7.96289 15.1684 8.12656ZM3.53716 14.8852C3.77583 14.8852 3.96958 15.0789 3.96958 15.3176C3.96958 15.5566 3.77583 15.75 3.53716 15.75C3.29849 15.75 3.10474 15.5566 3.10474 15.3176C3.10474 15.0789 3.29849 14.8852 3.53716 14.8852ZM16.1231 11.1121C16.1227 11.0301 16.1278 10.9523 16.1379 10.8789L15.2876 10.3109C15.1653 10.2293 15.0313 10.1355 14.8969 10.0414C14.4133 9.70274 13.9153 9.35391 13.3786 9.21289C13.0887 9.13672 12.7543 9.08594 12.4118 9.0793C12.1133 9.07383 11.8086 9.10195 11.5223 9.17578C11.3512 9.22031 11.186 9.28164 11.0329 9.3625C10.8965 9.43438 10.7696 9.52266 10.6567 9.62813L10.0856 10.3074C10.0684 10.341 10.0438 10.3699 10.0141 10.3922L8.4395 12.266C8.46294 12.3859 8.51021 12.4863 8.57466 12.5664C8.64966 12.6594 8.74966 12.7285 8.86489 12.7715C8.98677 12.8172 9.12739 12.8348 9.27622 12.8227C9.51372 12.8027 9.76685 12.7059 9.99536 12.525L10.4329 12.1633C10.5434 12.0719 10.6356 11.9879 10.727 11.9039C10.929 11.7195 11.1309 11.5352 11.3426 11.409C11.8333 11.116 12.3215 11.1066 12.8047 11.9168L15.2805 16.3824H16.1223L16.1231 11.1121ZM16.3223 10.3973C16.3606 10.3441 16.4043 10.2953 16.4536 10.2512C16.6696 10.0566 16.979 9.96172 17.3758 9.96133V9.96016L19.5282 9.96094C19.9786 9.95899 20.345 10.0414 20.5985 10.2367C20.8809 10.4539 21.0133 10.7852 20.9567 11.2598L20.4809 16.177C20.4461 16.616 20.3301 16.9602 20.1235 17.198C19.9036 17.4508 19.5973 17.5754 19.1961 17.5586L17.2606 17.559C16.9895 17.573 16.7598 17.4996 16.5676 17.3457C16.4266 17.2336 16.3102 17.0797 16.2168 16.8879H15.5473C15.6375 17.1516 15.6329 17.4016 15.561 17.6238C15.4868 17.8523 15.3426 18.0473 15.1586 18.193C14.9786 18.3359 14.7586 18.4336 14.529 18.4715C14.3043 18.5082 14.0696 18.4879 13.8512 18.3973C13.5973 18.6629 13.3297 18.8301 13.0508 18.907C12.7708 18.984 12.4872 18.9684 12.2 18.8676C11.9278 19.1695 11.6266 19.359 11.295 19.4309C10.9571 19.5039 10.5977 19.4535 10.2172 19.2742C10.0985 19.3668 9.97427 19.4402 9.84497 19.4938C9.66099 19.5699 9.46802 19.6051 9.26685 19.5992C8.78443 19.5848 8.45942 19.4422 8.20083 19.2109C7.95435 18.9906 7.78833 18.7074 7.60122 18.3816L6.53443 16.5207H5.70708C5.6606 16.7539 5.58052 16.952 5.46177 17.1109L5.45005 17.1273C5.23911 17.3984 4.92935 17.5426 4.50122 17.534L2.69614 17.5344C2.33833 17.5922 2.03169 17.5047 1.79185 17.2266C1.57935 16.9801 1.43403 16.5816 1.37232 15.9949L1.36958 15.9734L0.996534 11.3527C0.922706 10.8539 1.00435 10.5012 1.20474 10.2602C1.40708 10.0172 1.71177 9.90742 2.08755 9.88984L2.1188 9.88789H4.40396V9.88906C4.76528 9.88477 5.07544 9.94453 5.30982 10.0961V10.0969C5.49927 10.2195 5.63521 10.3922 5.70513 10.627H7.26021C7.65083 10.3633 8.01685 10.1563 8.42153 10.0301C8.8188 9.90625 9.24497 9.86289 9.75396 9.92383L10.286 9.29063L10.3059 9.26953C10.4543 9.12852 10.6204 9.0125 10.7989 8.91836C10.9864 8.81953 11.1879 8.74453 11.3965 8.69063C11.7286 8.60469 12.0786 8.57188 12.4196 8.57813C12.8059 8.58516 13.1813 8.64219 13.5055 8.72734L13.5063 8.72773C14.127 8.89023 14.6633 9.26602 15.184 9.63086C15.3083 9.71797 15.4321 9.80469 15.5665 9.89414L16.3223 10.3973ZM5.25278 10.9496C5.24414 10.9201 5.24096 10.8893 5.24341 10.8586C5.21568 10.6961 5.14458 10.5863 5.03911 10.518C4.89185 10.4238 4.67349 10.3871 4.40669 10.3902H4.40396V10.3914L2.10903 10.391C1.87271 10.4023 1.69146 10.459 1.59028 10.5809C1.4813 10.7113 1.44224 10.9367 1.49536 11.2859L1.49771 11.309L1.87114 15.9422C1.92192 16.4211 2.02505 16.7289 2.17114 16.8984C2.28677 17.032 2.44458 17.0703 2.63403 17.0359C2.64927 17.0332 2.6645 17.0316 2.67935 17.0316L4.48677 17.0309L4.51372 17.0324C4.76685 17.0367 4.94224 16.9609 5.05278 16.8188L5.06177 16.8078C5.18403 16.6418 5.24419 16.3855 5.25357 16.0574L5.25278 10.9496ZM5.7563 16.0176H6.67974C6.77739 16.0176 6.86216 16.073 6.90396 16.1543L8.03794 18.132C8.20396 18.4215 8.35044 18.6723 8.53521 18.8375C8.70786 18.9918 8.93403 19.0875 9.28091 19.0977C9.41099 19.1016 9.5356 19.0789 9.65435 19.0301C9.727 19 9.79849 18.9594 9.86841 18.9086L9.12974 17.5262C9.11422 17.4971 9.10457 17.4653 9.10136 17.4326C9.09814 17.3998 9.10142 17.3668 9.111 17.3353C9.12057 17.3038 9.13627 17.2745 9.15718 17.2491C9.17809 17.2236 9.20381 17.2026 9.23286 17.1871C9.35513 17.1219 9.50708 17.168 9.57192 17.2902L10.375 18.793C10.6743 18.9449 10.945 18.9922 11.1887 18.9395C11.4114 18.891 11.6215 18.7574 11.8192 18.5414L10.6618 16.725C10.6261 16.6689 10.6142 16.6009 10.6286 16.536C10.6431 16.4711 10.6827 16.4146 10.7387 16.3789C10.7665 16.3613 10.7974 16.3492 10.8298 16.3435C10.8622 16.3379 10.8954 16.3386 10.9275 16.3458C10.9596 16.3529 10.99 16.3663 11.0169 16.3852C11.0438 16.4041 11.0668 16.4281 11.0844 16.4559L12.3043 18.3703C12.518 18.457 12.7235 18.477 12.9192 18.4234C13.1059 18.3719 13.293 18.252 13.4801 18.0586L12.3751 15.9785C12.3437 15.9196 12.3371 15.8507 12.3565 15.7869C12.376 15.7231 12.4201 15.6696 12.479 15.6383C12.5379 15.6071 12.6068 15.6006 12.6706 15.6201C12.7344 15.6397 12.7878 15.6837 12.8192 15.7426L13.9622 17.8945C14.111 17.9805 14.2829 18.0031 14.4485 17.9758C14.593 17.9523 14.7321 17.8902 14.8461 17.8C14.9559 17.7125 15.0415 17.5996 15.0833 17.4703C15.129 17.3285 15.1243 17.1617 15.0454 16.9805C15.029 16.943 15.0223 16.9031 15.0251 16.8645C14.9902 16.8494 14.9592 16.8266 14.9345 16.7979C14.9097 16.7691 14.8918 16.7351 14.8821 16.6984L12.3735 12.173C12.0946 11.7066 11.843 11.6945 11.6001 11.8391C11.4278 11.9418 11.2465 12.1078 11.0649 12.2734C10.9551 12.3738 10.8446 12.475 10.7532 12.5504L10.3079 12.9172C9.99771 13.1637 9.64849 13.2961 9.31724 13.3238C9.09732 13.3418 8.88247 13.3137 8.68989 13.2414C8.49067 13.1668 8.31607 13.0453 8.18364 12.8809C8.04067 12.7035 7.94732 12.4789 7.92505 12.2117C7.9188 12.1348 7.94771 12.0637 7.9981 12.0129L9.35396 10.3996C9.06567 10.3957 8.8106 10.4352 8.57114 10.5098C8.20591 10.623 7.86528 10.8219 7.49224 11.0762C7.4478 11.1111 7.39291 11.1301 7.33638 11.1301H5.7563V16.0176ZM18.3336 14.8852C18.5723 14.8852 18.7661 15.0789 18.7661 15.3176C18.7661 15.5566 18.5723 15.75 18.3336 15.75C18.0946 15.75 17.9008 15.5566 17.9008 15.3176C17.9008 15.0789 18.0946 14.8852 18.3336 14.8852ZM12.6364 5.14688C11.8766 5.11719 11.2368 5.70859 11.2071 6.46836C11.193 6.8207 11.3129 7.14688 11.5208 7.39844C12.1887 7.29141 12.9208 7.32656 13.5809 7.46992C13.8115 7.22799 13.9457 6.91014 13.9583 6.57617C13.9879 5.81641 13.3961 5.17656 12.6364 5.14688ZM6.67036 9.38203L11.234 1.47773L10.4915 1.05664L5.90357 9.00313C6.07583 9.10469 6.24575 9.23945 6.38286 9.38203H6.67036Z" fill="white"/>
</g>
<defs>
<clipPath id="clip0_1166_84">
<rect width="20" height="19.6" fill="white" transform="translate(0.969727)"/>
</clipPath>
</defs>
</svg>
