<svg width="21" height="14" viewBox="0 0 21 14" fill="none" xmlns="http://www.w3.org/2000/svg">
<g clip-path="url(#clip0_1166_93)">
<path fill-rule="evenodd" clip-rule="evenodd" d="M4.71941 0.546875C6.12266 1.43625 7.39023 1.85703 8.47812 1.75762C8.66816 5.60066 7.24898 7.87012 4.73391 8.81727C2.30519 7.93078 0.868671 5.75887 0.975273 1.6993C2.2523 1.76613 3.50527 1.49 4.71941 0.546875ZM3.96703 4.60637C4.0622 4.6871 4.15197 4.77398 4.23578 4.86645C4.4984 4.44371 4.77836 4.05563 5.0741 3.69867C5.91008 2.68895 5.53121 2.88355 6.69086 2.88355L6.52977 3.0625C6.03461 3.61273 5.86758 3.8991 5.46168 4.48551C5.05949 5.06713 4.69482 5.67382 4.36988 6.30188L4.26945 6.49563L4.17715 6.29828C4.00687 5.9327 3.80289 5.59711 3.55965 5.29731C3.31637 4.99746 3.10391 4.80184 2.77402 4.57547C2.92519 4.0793 3.64465 4.33324 3.96703 4.60637ZM15.7438 4.67434L14.3712 4.66484V2.81133C14.3715 2.67999 14.3456 2.54992 14.2951 2.42868C14.2446 2.30744 14.1705 2.19745 14.0771 2.10512C13.9848 2.01171 13.8748 1.9376 13.7536 1.8871C13.6323 1.83661 13.5022 1.81073 13.3709 1.81098H9.32152C9.30453 1.9866 9.27769 2.16828 9.24992 2.35332H13.3709C13.4966 2.35332 13.6115 2.40543 13.6943 2.48805C13.7769 2.57086 13.829 2.68574 13.829 2.81133V11.2991H12.3002C12.2646 11.2991 12.2293 11.3061 12.1964 11.3197C12.1634 11.3333 12.1335 11.3533 12.1083 11.3785C12.0831 11.4037 12.0632 11.4336 12.0496 11.4665C12.036 11.4995 12.029 11.5348 12.0291 11.5704C12.029 11.606 12.036 11.6413 12.0496 11.6742C12.0632 11.7071 12.0832 11.737 12.1084 11.7622C12.1335 11.7874 12.1635 11.8073 12.1964 11.8209C12.2293 11.8345 12.2646 11.8415 12.3002 11.8414H14.1001C14.1357 11.8415 14.171 11.8345 14.2039 11.8209C14.2368 11.8073 14.2667 11.7874 14.2919 11.7622C14.3171 11.737 14.3371 11.7071 14.3507 11.6742C14.3643 11.6413 14.3713 11.606 14.3712 11.5704V11.2624H15.4667C15.5908 8.44082 19.6425 8.05164 20.0546 11.2624H20.9445C21.1737 8.51109 19.8153 7.44188 17.7491 7.20004C17.6005 6.55434 17.317 5.95496 16.9968 5.36266C16.616 4.65855 16.5274 4.68699 15.7438 4.67434ZM6.71504 11.2977C6.75066 11.2977 6.78596 11.3046 6.81889 11.3182C6.85182 11.3318 6.88174 11.3518 6.90694 11.3769C6.93214 11.4021 6.95213 11.432 6.96574 11.465C6.97936 11.4979 6.98634 11.5332 6.98629 11.5688C6.98635 11.6044 6.97937 11.6397 6.96575 11.6726C6.95214 11.7056 6.93216 11.7355 6.90696 11.7607C6.88176 11.7859 6.85183 11.8058 6.8189 11.8194C6.78597 11.833 6.75067 11.84 6.71504 11.8399H3.83469C3.56039 11.8399 3.31074 11.7204 3.12836 11.532C2.94777 11.3437 2.83434 11.0863 2.83434 10.8136V8.92492C3.00909 9.03697 3.19013 9.1389 3.37656 9.2302V10.8136C3.37656 10.9438 3.43027 11.0679 3.51754 11.1583C3.60031 11.2441 3.71207 11.2991 3.83305 11.2991H6.71504V11.2977ZM9.47246 9.79711C8.45828 9.79711 7.63578 10.6197 7.63578 11.6338C7.63578 12.6479 8.45828 13.4705 9.47246 13.4705C10.4866 13.4705 11.3091 12.6479 11.3091 11.6338C11.3076 10.6197 10.4866 9.79711 9.47246 9.79711ZM9.47246 10.9277C9.0834 10.9277 8.76621 11.2433 8.76621 11.6338C8.76621 12.0229 9.08184 12.3401 9.47246 12.3401C9.86148 12.3401 10.1787 12.0245 10.1787 11.6338C10.177 11.2433 9.86148 10.9277 9.47246 10.9277ZM17.7552 9.52688C16.7412 9.52688 15.9187 10.3495 15.9187 11.3635C15.9187 12.3776 16.7412 13.2003 17.7552 13.2003C18.7694 13.2003 19.592 12.3776 19.592 11.3635C19.592 10.3495 18.7694 9.52688 17.7552 9.52688ZM17.0491 11.3635C17.0491 11.7526 17.3646 12.0697 17.7552 12.0697C18.1459 12.0697 18.4614 11.7542 18.4614 11.3635C18.4614 10.9729 18.1459 10.6574 17.7552 10.6574C17.3655 10.6574 17.0491 10.9736 17.0491 11.3635ZM15.8757 5.45828L15.0483 5.44297V7.20313H16.8009C16.5847 6.57527 16.2648 5.99973 15.8757 5.45828ZM4.72164 1.11211C5.91027 1.86551 7.05117 2.28898 7.97269 2.20473C8.13355 5.46 6.86437 7.44965 4.7341 8.25191C2.67664 7.50098 1.39262 5.5943 1.48293 2.15531C2.67676 2.21789 3.7709 1.85074 4.72164 1.11211Z" fill="white"/>
</g>
<defs>
<clipPath id="clip0_1166_93">
<rect width="20" height="12.9236" fill="white" transform="translate(0.969727 0.546875)"/>
</clipPath>
</defs>
</svg>
