<svg width="306" height="38" viewBox="0 0 306 38" fill="none" xmlns="http://www.w3.org/2000/svg">
<path d="M207.845 21.3674V24.2481H199.884V21.3674H207.845ZM220.475 19.1004C220.407 18.4129 220.115 17.8788 219.597 17.4981C219.08 17.1174 218.379 16.9271 217.492 16.9271C216.89 16.9271 216.382 17.0123 215.967 17.1827C215.552 17.3475 215.234 17.5776 215.012 17.8731C214.796 18.1685 214.688 18.5038 214.688 18.8788C214.677 19.1913 214.742 19.464 214.884 19.6969C215.032 19.9299 215.234 20.1316 215.49 20.3021C215.745 20.4668 216.041 20.6117 216.376 20.7367C216.711 20.856 217.069 20.9583 217.45 21.0435L219.018 21.4185C219.779 21.589 220.478 21.8163 221.115 22.1004C221.751 22.3844 222.302 22.7339 222.768 23.1486C223.234 23.5634 223.595 24.0521 223.85 24.6146C224.112 25.1771 224.245 25.8219 224.251 26.5492C224.245 27.6174 223.972 28.5435 223.433 29.3276C222.899 30.106 222.126 30.7111 221.115 31.143C220.109 31.5691 218.896 31.7822 217.475 31.7822C216.066 31.7822 214.839 31.5663 213.793 31.1344C212.754 30.7026 211.941 30.0634 211.356 29.2168C210.776 28.3646 210.472 27.3106 210.444 26.0549H214.015C214.055 26.6401 214.222 27.1288 214.518 27.5208C214.819 27.9072 215.22 28.1998 215.72 28.3986C216.225 28.5918 216.796 28.6884 217.433 28.6884C218.058 28.6884 218.6 28.5975 219.061 28.4157C219.526 28.2339 219.887 27.981 220.143 27.6572C220.399 27.3333 220.526 26.9611 220.526 26.5407C220.526 26.1486 220.41 25.8191 220.177 25.5521C219.95 25.285 219.615 25.0577 219.171 24.8702C218.734 24.6827 218.197 24.5123 217.561 24.3589L215.66 23.8816C214.188 23.5236 213.026 22.964 212.174 22.2026C211.322 21.4413 210.899 20.4157 210.904 19.1259C210.899 18.0691 211.18 17.1458 211.748 16.356C212.322 15.5663 213.109 14.9498 214.109 14.5066C215.109 14.0634 216.245 13.8418 217.518 13.8418C218.813 13.8418 219.944 14.0634 220.91 14.5066C221.882 14.9498 222.637 15.5663 223.177 16.356C223.717 17.1458 223.995 18.0606 224.012 19.1004H220.475ZM235.06 25.9611V18.4441H238.69V31.535H235.205V29.1572H235.068C234.773 29.9242 234.281 30.5407 233.594 31.0066C232.912 31.4725 232.08 31.7055 231.097 31.7055C230.222 31.7055 229.452 31.5066 228.787 31.1089C228.122 30.7111 227.602 30.1458 227.227 29.4129C226.858 28.6799 226.671 27.8021 226.665 26.7793V18.4441H230.296V26.1316C230.301 26.9043 230.509 27.5151 230.918 27.964C231.327 28.4129 231.875 28.6373 232.563 28.6373C233 28.6373 233.409 28.5379 233.79 28.339C234.171 28.1344 234.477 27.8333 234.71 27.4356C234.949 27.0379 235.065 26.5464 235.06 25.9611ZM241.595 36.4441V18.4441H245.174V20.643H245.336C245.495 20.2907 245.725 19.9327 246.026 19.5691C246.333 19.1998 246.731 18.893 247.22 18.6486C247.714 18.3986 248.328 18.2736 249.061 18.2736C250.015 18.2736 250.896 18.5236 251.703 19.0236C252.509 19.518 253.154 20.2651 253.637 21.2651C254.12 22.2594 254.362 23.5066 254.362 25.0066C254.362 26.4668 254.126 27.6998 253.654 28.7055C253.188 29.7055 252.552 30.464 251.745 30.981C250.944 31.4924 250.046 31.7481 249.052 31.7481C248.347 31.7481 247.748 31.6316 247.254 31.3986C246.765 31.1657 246.365 30.8731 246.052 30.5208C245.74 30.1629 245.501 29.8021 245.336 29.4384H245.225V36.4441H241.595ZM245.149 24.9896C245.149 25.768 245.257 26.4469 245.472 27.0265C245.688 27.606 246.001 28.0577 246.41 28.3816C246.819 28.6998 247.316 28.8589 247.901 28.8589C248.492 28.8589 248.992 28.6969 249.401 28.3731C249.811 28.0435 250.12 27.589 250.33 27.0094C250.546 26.4242 250.654 25.7509 250.654 24.9896C250.654 24.2339 250.549 23.5691 250.339 22.9952C250.129 22.4214 249.819 21.9725 249.41 21.6486C249.001 21.3248 248.498 21.1629 247.901 21.1629C247.311 21.1629 246.811 21.3191 246.401 21.6316C245.998 21.9441 245.688 22.3873 245.472 22.9611C245.257 23.535 245.149 24.2111 245.149 24.9896ZM256.782 36.4441V18.4441H260.362V20.643H260.524C260.683 20.2907 260.913 19.9327 261.214 19.5691C261.521 19.1998 261.918 18.893 262.407 18.6486C262.901 18.3986 263.515 18.2736 264.248 18.2736C265.203 18.2736 266.083 18.5236 266.89 19.0236C267.697 19.518 268.342 20.2651 268.825 21.2651C269.308 22.2594 269.549 23.5066 269.549 25.0066C269.549 26.4668 269.313 27.6998 268.842 28.7055C268.376 29.7055 267.74 30.464 266.933 30.981C266.132 31.4924 265.234 31.7481 264.24 31.7481C263.535 31.7481 262.936 31.6316 262.441 31.3986C261.953 31.1657 261.552 30.8731 261.24 30.5208C260.927 30.1629 260.688 29.8021 260.524 29.4384H260.413V36.4441H256.782ZM260.336 24.9896C260.336 25.768 260.444 26.4469 260.66 27.0265C260.876 27.606 261.188 28.0577 261.597 28.3816C262.007 28.6998 262.504 28.8589 263.089 28.8589C263.68 28.8589 264.18 28.6969 264.589 28.3731C264.998 28.0435 265.308 27.589 265.518 27.0094C265.734 26.4242 265.842 25.7509 265.842 24.9896C265.842 24.2339 265.737 23.5691 265.526 22.9952C265.316 22.4214 265.007 21.9725 264.597 21.6486C264.188 21.3248 263.686 21.1629 263.089 21.1629C262.498 21.1629 261.998 21.3191 261.589 21.6316C261.186 21.9441 260.876 22.3873 260.66 22.9611C260.444 23.535 260.336 24.2111 260.336 24.9896ZM277.884 31.7907C276.561 31.7907 275.416 31.5094 274.45 30.9469C273.49 30.3788 272.748 29.589 272.225 28.5776C271.703 27.5606 271.441 26.3816 271.441 25.0407C271.441 23.6884 271.703 22.5066 272.225 21.4952C272.748 20.4782 273.49 19.6884 274.45 19.1259C275.416 18.5577 276.561 18.2736 277.884 18.2736C279.208 18.2736 280.35 18.5577 281.311 19.1259C282.276 19.6884 283.021 20.4782 283.543 21.4952C284.066 22.5066 284.328 23.6884 284.328 25.0407C284.328 26.3816 284.066 27.5606 283.543 28.5776C283.021 29.589 282.276 30.3788 281.311 30.9469C280.35 31.5094 279.208 31.7907 277.884 31.7907ZM277.901 28.9782C278.504 28.9782 279.007 28.8077 279.41 28.4668C279.813 28.1202 280.117 27.6486 280.322 27.0521C280.532 26.4555 280.637 25.7765 280.637 25.0151C280.637 24.2538 280.532 23.5748 280.322 22.9782C280.117 22.3816 279.813 21.91 279.41 21.5634C279.007 21.2168 278.504 21.0435 277.901 21.0435C277.293 21.0435 276.782 21.2168 276.367 21.5634C275.958 21.91 275.649 22.3816 275.438 22.9782C275.234 23.5748 275.132 24.2538 275.132 25.0151C275.132 25.7765 275.234 26.4555 275.438 27.0521C275.649 27.6486 275.958 28.1202 276.367 28.4668C276.782 28.8077 277.293 28.9782 277.901 28.9782ZM286.688 31.535V18.4441H290.208V20.7282H290.345C290.583 19.9157 290.984 19.3021 291.546 18.8873C292.109 18.4668 292.757 18.2566 293.49 18.2566C293.671 18.2566 293.867 18.268 294.078 18.2907C294.288 18.3134 294.472 18.3447 294.632 18.3844V21.606C294.461 21.5549 294.225 21.5094 293.924 21.4697C293.623 21.4299 293.347 21.41 293.097 21.41C292.563 21.41 292.086 21.5265 291.666 21.7594C291.251 21.9867 290.921 22.3049 290.677 22.714C290.438 23.1231 290.319 23.5947 290.319 24.1288V31.535H286.688ZM304.128 18.4441V21.1714H296.244V18.4441H304.128ZM298.034 15.3077H301.665V27.5123C301.665 27.8475 301.716 28.1089 301.818 28.2964C301.921 28.4782 302.063 28.606 302.244 28.6799C302.432 28.7538 302.648 28.7907 302.892 28.7907C303.063 28.7907 303.233 28.7765 303.404 28.7481C303.574 28.714 303.705 28.6884 303.796 28.6714L304.367 31.3731C304.185 31.4299 303.929 31.4952 303.6 31.5691C303.27 31.6486 302.869 31.6969 302.398 31.714C301.523 31.7481 300.756 31.6316 300.097 31.3646C299.443 31.0975 298.935 30.6827 298.571 30.1202C298.208 29.5577 298.029 28.8475 298.034 27.9896V15.3077Z" fill="#76787B"/>
<g clip-path="url(#clip0_15_9)">
<path fill-rule="evenodd" clip-rule="evenodd" d="M117.232 0.568161C115.683 0.688873 114.194 1.03089 113.389 1.41315C112.464 1.87588 111.317 3.02265 110.854 3.96823C110.271 5.15523 110.07 6.12093 110.009 8.09256L109.929 9.84289L108.098 9.88312L106.267 9.90325V12.0358V14.1684L108.098 14.1885L109.929 14.2288L109.969 24.5094L109.989 34.7901H112.645H115.3V24.4893V14.1885H118.057H120.813V12.056V9.92336H118.037H115.26L115.321 8.4547C115.401 6.26176 115.723 5.59784 116.97 5.11499C117.473 4.91381 117.835 4.87357 119.566 4.83333L121.557 4.79309V2.68063V0.588281L121.074 0.507807C120.431 0.427333 118.62 0.467568 117.232 0.568161Z" fill="#76787B"/>
<path fill-rule="evenodd" clip-rule="evenodd" d="M0 17.9107V34.7701H2.77638H5.53264L5.51252 17.9308L5.47229 1.09141L2.73614 1.07129L0 1.05118V17.9107Z" fill="#76787B"/>
<path fill-rule="evenodd" clip-rule="evenodd" d="M50.2969 1.07129L47.7217 1.09141V17.9308V34.7701H50.3773H53.033V31.4707V28.1712L53.8981 27.1854C54.381 26.6623 55.0046 25.938 55.3064 25.596C55.6082 25.2741 55.8295 24.9321 55.8094 24.8717C55.7893 24.8114 55.8295 24.7912 55.8698 24.8114C55.91 24.8315 56.5337 24.2279 57.2177 23.4433C57.9017 22.6587 58.5053 22.0149 58.5657 22.0149C58.626 22.0149 60.0947 24.8918 61.8249 28.3925L64.9835 34.7701H67.8806C69.47 34.7701 70.7777 34.75 70.7777 34.7299C70.7777 34.6896 68.9469 30.9677 66.6936 26.441C64.4403 21.8942 62.6095 18.1521 62.6095 18.0917C62.6095 18.0314 63.6356 16.8444 64.9232 15.4562C66.1906 14.068 67.6995 12.3981 68.283 11.7543C68.8664 11.1105 69.4901 10.4265 69.6511 10.2253L69.973 9.88328H66.9954H63.9776L61.7645 12.2975C60.5574 13.6254 58.3041 16.0799 56.7751 17.7497C55.2461 19.3994 53.7975 21.0492 53.536 21.3912L53.0732 22.0149L53.033 11.5733C53.0129 5.81931 52.9727 1.09141 52.9324 1.05118C52.8922 1.0713 51.7052 1.05117 50.2969 1.07129Z" fill="#76787B"/>
<path fill-rule="evenodd" clip-rule="evenodd" d="M13.2781 2.35857C13.2177 2.47928 13.1775 3.64616 13.1775 5.39649C13.1775 7.81073 13.1976 8.23322 13.3384 8.37405C13.4189 8.47465 13.5799 8.53501 13.6402 8.53501C13.7006 8.53501 13.8615 8.45453 13.942 8.37405C14.0828 8.23322 14.103 7.81073 14.103 5.39649C14.103 3.64616 14.0627 2.4994 14.0024 2.35857C13.942 2.23786 13.7811 2.15738 13.6402 2.15738C13.4994 2.15738 13.3586 2.23786 13.2781 2.35857Z" fill="#5C2F94"/>
<path fill-rule="evenodd" clip-rule="evenodd" d="M141.354 2.27809C141.254 2.37868 141.233 3.20355 141.233 5.35626C141.233 8.19299 141.254 8.3137 141.455 8.41429C141.596 8.49477 141.736 8.49477 141.877 8.41429C142.078 8.3137 142.099 8.19299 142.099 5.35626C142.099 2.31833 142.078 2.15738 141.676 2.15738C141.555 2.15738 141.414 2.21773 141.354 2.27809Z" fill="#5C2F94"/>
<path fill-rule="evenodd" clip-rule="evenodd" d="M11.5684 3.76702C11.4074 3.86761 11.3672 4.08891 11.3672 6.10078C11.3672 8.21325 11.3873 8.33397 11.5885 8.43456C11.7293 8.51503 11.8702 8.51503 12.011 8.43456C12.2122 8.33397 12.2323 8.21325 12.2323 6.1209C12.2323 3.62618 12.1518 3.40488 11.5684 3.76702Z" fill="#5C2F94"/>
<path fill-rule="evenodd" clip-rule="evenodd" d="M15.2098 3.76658C15.1092 3.86717 15.0891 4.51096 15.0891 6.10034C15.0891 8.19269 15.1092 8.3134 15.3104 8.41399C15.4512 8.49447 15.5921 8.49447 15.7329 8.41399C15.9341 8.3134 15.9542 8.19269 15.9542 6.08023C15.9542 3.98788 15.9341 3.84705 15.753 3.74646C15.4714 3.60563 15.3708 3.60563 15.2098 3.76658Z" fill="#5C2F94"/>
<path fill-rule="evenodd" clip-rule="evenodd" d="M139.483 3.80733C139.342 3.94816 139.322 4.3103 139.322 6.08075C139.322 7.8512 139.342 8.21333 139.483 8.35416C139.563 8.45476 139.724 8.51511 139.785 8.51511C139.845 8.51511 140.006 8.43464 140.087 8.35416C140.227 8.21333 140.247 7.8512 140.247 6.08075C140.247 4.3103 140.227 3.94816 140.087 3.80733C140.006 3.70674 139.845 3.64639 139.785 3.64639C139.724 3.64639 139.563 3.72686 139.483 3.80733Z" fill="#5C2F94"/>
<path fill-rule="evenodd" clip-rule="evenodd" d="M143.185 3.80709C143.044 3.94792 143.024 4.31006 143.024 6.0805C143.024 7.85095 143.044 8.21308 143.185 8.35392C143.406 8.59534 143.607 8.57522 143.808 8.29356C143.949 8.09237 143.969 7.69 143.969 6.0805C143.969 4.47101 143.929 4.06863 143.808 3.86745C143.627 3.6059 143.426 3.58578 143.185 3.80709Z" fill="#5C2F94"/>
<path fill-rule="evenodd" clip-rule="evenodd" d="M193.28 6.62357C193.28 6.80464 193.361 6.84487 193.803 6.84487H194.326V8.39401C194.326 9.86268 194.347 9.94315 194.548 9.94315C194.749 9.94315 194.769 9.86268 194.769 8.39401V6.84487H195.292C195.755 6.84487 195.815 6.80464 195.815 6.62357C195.815 6.42238 195.735 6.40226 194.548 6.40226C193.361 6.40226 193.28 6.42238 193.28 6.62357Z" fill="#76787B"/>
<path fill-rule="evenodd" clip-rule="evenodd" d="M196.479 8.15303C196.479 9.78265 196.499 9.92347 196.68 9.88323C196.841 9.843 196.882 9.66193 196.922 8.41457C196.982 6.80507 196.902 6.76484 197.706 8.71635C197.968 9.34003 198.209 9.843 198.27 9.86312C198.37 9.90336 199.477 7.38852 199.477 7.12698C199.477 7.06663 199.537 7.02639 199.578 7.02639C199.638 7.02639 199.678 7.56959 199.678 8.45481C199.678 9.66193 199.698 9.88323 199.839 9.88323C199.98 9.88323 200 9.62169 200 8.11279V6.36246L199.718 6.4027C199.457 6.44294 199.376 6.54354 198.893 7.73054C198.592 8.45482 198.33 9.03826 198.29 9.03826C198.25 9.03826 197.988 8.45482 197.686 7.73054C197.183 6.5033 197.143 6.44294 196.821 6.4027L196.499 6.36246V8.15303H196.479Z" fill="#76787B"/>
<path fill-rule="evenodd" clip-rule="evenodd" d="M31.8278 9.48079C30.5201 9.70209 28.5887 10.4264 28.7496 10.6678C28.7899 10.7281 28.7295 10.7483 28.6491 10.708C28.4479 10.6276 27.4218 11.6737 27.1603 12.237C27.0396 12.4986 26.9188 12.6193 26.8786 12.5388C26.8384 12.4785 26.7981 11.8749 26.7981 11.1909L26.8183 9.96364L24.3034 9.9234L21.7886 9.90329V22.3366V34.77H24.5448H27.3011L27.3615 27.7285C27.4218 20.1035 27.4218 19.9023 28.0254 18.0111C28.7496 15.7176 30.2787 14.3093 32.1296 14.1886C33.0752 14.1282 34.2622 14.3495 34.8456 14.7318C35.3888 15.0738 35.932 15.7578 36.2338 16.4821C36.7569 17.7295 36.777 18.0715 36.777 26.7225V34.7901H39.5936H42.4102L42.3499 26.3201C42.2895 17.3271 42.2895 17.2667 41.7463 15.2951C41.2635 13.5649 40.1972 11.8548 39.0102 10.9495C38.3664 10.4465 37.1995 9.90328 36.3143 9.68197C35.5699 9.44055 32.713 9.33995 31.8278 9.48079Z" fill="#76787B"/>
<path fill-rule="evenodd" clip-rule="evenodd" d="M91.3791 9.46043C91.1779 9.48055 90.4939 9.60126 89.8501 9.72197C86.4702 10.3457 84.1967 11.8546 83.0902 14.2286C82.6476 15.154 82.3056 16.3008 82.4263 16.4014C82.4665 16.4416 83.4322 16.6026 84.579 16.7434C85.7258 16.9044 86.7518 17.0653 86.8725 17.0854C87.0737 17.1458 87.114 17.0854 87.1743 16.7836C87.3956 15.6168 88.3211 14.47 89.4679 13.9469C90.6347 13.4238 91.4998 13.2629 93.3508 13.3232C95.1413 13.3836 95.9662 13.5646 96.8313 14.1481C97.9177 14.8724 98.2798 15.7576 98.2798 17.7292V19.0369H97.2538C95.6242 19.0369 92.707 19.2381 91.3791 19.4192C86.6714 20.0831 83.5328 21.8133 82.2855 24.4288C80.8369 27.4466 81.7423 31.5105 84.3376 33.5425C86.3897 35.152 89.6892 35.6952 92.707 34.9307C94.8798 34.3473 96.6703 32.8384 97.8171 30.6052C98.3 29.6395 98.3 29.6395 98.481 31.4301C98.6017 32.4762 98.9035 33.9047 99.1248 34.4881L99.2455 34.7899H101.861H104.476L104.416 34.5485C104.154 33.623 103.893 31.9733 103.812 30.8064C103.752 30.062 103.712 26.3601 103.712 22.6181C103.712 17.0452 103.672 15.6771 103.551 15.0736C103.35 14.128 102.967 13.2025 102.827 13.283C102.766 13.3232 102.746 13.3031 102.786 13.2226C102.887 13.0617 102.223 12.1765 101.438 11.4522C99.8491 10.0036 97.455 9.37996 93.6123 9.42019C92.5862 9.42019 91.5803 9.44031 91.3791 9.46043ZM98.2597 23.966C98.2195 25.7365 98.1792 25.9779 97.9177 26.7625C97.1331 29.0359 95.6845 30.4241 93.5318 30.9271C92.4454 31.1685 90.7554 31.1484 89.8501 30.8667C88.0394 30.3034 86.9932 28.5531 87.3353 26.6418C87.637 24.9116 88.7436 23.785 90.8359 23.0808C92.4857 22.5175 95.0005 22.1553 97.6159 22.0749L98.2798 22.0547L98.2597 23.966Z" fill="#76787B"/>
<path fill-rule="evenodd" clip-rule="evenodd" d="M157.69 9.46086C155.397 9.823 153.606 10.668 152.118 12.0562C150.146 13.887 148.979 16.2409 148.396 19.48C148.114 20.9889 148.134 23.8457 148.436 25.4351C149.14 29.2778 150.85 32.1749 153.385 33.8045C155.196 34.9915 157.67 35.4945 160.105 35.2128C162.64 34.911 164.651 33.9252 166.18 32.195C166.382 31.9737 166.543 31.7323 166.543 31.6518C166.543 31.5713 166.583 31.5311 166.623 31.5512C166.663 31.5914 166.744 31.5311 166.824 31.4506C166.905 31.3701 166.925 31.2897 166.885 31.2897C166.844 31.2897 166.905 31.1891 167.005 31.0684C167.408 30.6459 168.192 28.8754 168.575 27.5878C168.776 26.8635 168.937 26.26 168.917 26.2399C168.856 26.1795 164.47 25.757 164.309 25.7973C164.209 25.8174 164.028 26.1191 163.867 26.6221C163.565 27.5073 162.901 28.6742 162.499 29.0565C162.358 29.1973 162.257 29.3583 162.298 29.4186C162.338 29.479 162.338 29.4991 162.277 29.4589C162.217 29.3985 161.352 29.9015 161.171 30.1026C161.131 30.1429 161.05 30.1831 160.95 30.1831C160.869 30.2032 160.587 30.2636 160.306 30.324C160.044 30.4044 159.4 30.4245 158.857 30.4044C158.032 30.3642 157.791 30.324 157.208 30.0423C156.322 29.5997 155.618 28.8955 155.095 27.8896C154.27 26.3203 153.948 24.57 154.049 21.9948C154.21 17.1462 155.839 14.3698 158.737 13.9473C160.085 13.7461 161.573 14.1485 162.438 14.913C163.042 15.4361 163.646 16.5225 163.907 17.5888C164.028 18.1119 164.189 18.5143 164.249 18.5143C164.571 18.4942 168.796 17.8906 168.836 17.8504C168.917 17.7699 168.373 15.7379 168.092 14.9935C167.75 14.1284 167.086 13.0219 166.543 12.4183C164.752 10.3461 162.358 9.36027 159.159 9.40051C158.535 9.40051 157.831 9.44074 157.69 9.46086Z" fill="#76787B"/>
<path fill-rule="evenodd" clip-rule="evenodd" d="M179.378 9.54117C175.757 10.0844 173.343 11.4726 172.015 13.7259C171.593 14.4501 171.009 16.0797 171.11 16.3011C171.15 16.4016 171.814 16.5425 173.242 16.7437C174.389 16.9046 175.415 17.0656 175.536 17.0857C175.697 17.1259 175.777 17.0052 175.958 16.4821C176.703 14.249 178.413 13.3034 181.632 13.3034C184.408 13.3034 185.977 13.9874 186.682 15.5164C186.923 16.0395 186.963 16.2809 186.983 17.5484L187.024 18.997L184.65 19.0774C177.87 19.2987 173.946 20.5059 171.834 23.0811C170.768 24.3687 170.285 25.7367 170.285 27.5474C170.265 29.7806 170.949 31.4706 172.438 32.9795C173.162 33.7037 173.524 33.9854 174.248 34.3274C175.978 35.1724 178.091 35.4742 180.163 35.1724C183.201 34.7097 185.132 33.3014 186.541 30.5049L186.943 29.7202L187.024 30.4646C187.185 31.8729 187.426 33.2008 187.647 33.9854L187.869 34.77H190.524C192.999 34.77 193.18 34.7499 193.12 34.5688C192.496 32.4362 192.496 32.4363 192.415 23.6041C192.335 14.4501 192.355 14.7117 191.611 13.2832C191.208 12.5389 190.021 11.1305 189.86 11.2311C189.82 11.2714 189.76 11.211 189.72 11.1305C189.559 10.7081 187.869 10.0039 186.239 9.682C184.891 9.40033 180.847 9.31987 179.378 9.54117ZM186.983 23.8657C186.923 25.8574 186.742 26.7225 186.199 27.809C185.414 29.3782 183.945 30.525 182.276 30.9274C181.37 31.1285 179.519 31.1487 178.755 30.9274C176.28 30.2433 175.214 27.4669 176.542 25.1935C177.648 23.3024 181.048 22.216 186.38 22.0751L187.064 22.055L186.983 23.8657Z" fill="#76787B"/>
<path fill-rule="evenodd" clip-rule="evenodd" d="M133.206 9.86301C131.677 10.1447 130.349 10.8488 129.564 11.7944C129.404 11.9956 129.102 12.4382 128.921 12.8003L128.559 13.4643V11.6737V9.90325H126.064H123.569V22.3366V34.77H126.325H129.082L129.142 28.5734C129.182 23.7047 129.222 22.2159 129.363 21.5319C129.806 19.178 130.45 17.7093 131.476 16.7637C132.623 15.7175 133.588 15.3152 135.339 15.1743L136.244 15.0939V12.398V9.70206L135.157 9.72217C134.534 9.72217 133.669 9.78253 133.206 9.86301Z" fill="#76787B"/>
<path fill-rule="evenodd" clip-rule="evenodd" d="M10.844 22.2964V34.77H13.6606H16.4772V22.2964V9.80264H13.6606H10.844V22.2964Z" fill="#5C2F94"/>
<path fill-rule="evenodd" clip-rule="evenodd" d="M138.879 22.2964V34.77H141.636H144.412V22.2964V9.80264H141.636H138.879V22.2964Z" fill="#5C2F94"/>
</g>
<defs>
<clipPath id="clip0_15_9">
<rect width="200" height="35" fill="white" transform="translate(0 0.464996)"/>
</clipPath>
</defs>
</svg>
